<svg width="60" height="24" viewBox="0 0 60 24" fill="none" xmlns="http://www.w3.org/2000/svg">
<path d="M15.4902 1.67188V16.1738C15.4805 18.1855 14.8457 19.8311 13.5859 21.1104C12.3359 22.3896 10.6367 23.1074 8.48828 23.2637L7.74121 23.293C5.40723 23.293 3.54688 22.6631 2.16016 21.4033C0.773438 20.1436 0.0703125 18.4102 0.0507812 16.2031V1.67188H2.83398V16.1152C2.83398 17.6582 3.25879 18.8594 4.1084 19.7188C4.95801 20.5684 6.16895 20.9932 7.74121 20.9932C9.33301 20.9932 10.5488 20.5684 11.3887 19.7188C12.2383 18.8691 12.6631 17.6729 12.6631 16.1299V1.67188H15.4902ZM32.9219 15.251C32.9219 17.6729 32.3652 19.6211 31.252 21.0957C30.1387 22.5605 28.6445 23.293 26.7695 23.293C24.7676 23.293 23.2197 22.585 22.126 21.1689L21.9941 23H19.5039V0.5H22.2139V8.89355C23.3076 7.53613 24.8164 6.85742 26.7402 6.85742C28.6641 6.85742 30.1729 7.58496 31.2666 9.04004C32.3701 10.4951 32.9219 12.4873 32.9219 15.0166V15.251ZM30.2119 14.9434C30.2119 13.0977 29.8555 11.6719 29.1426 10.666C28.4297 9.66016 27.4043 9.15723 26.0664 9.15723C24.2793 9.15723 22.9951 9.9873 22.2139 11.6475V18.5029C23.0439 20.1631 24.3379 20.9932 26.0957 20.9932C27.3945 20.9932 28.4053 20.4902 29.1279 19.4844C29.8506 18.4785 30.2119 16.9648 30.2119 14.9434ZM42.9268 23.293C40.7783 23.293 39.0303 22.5898 37.6826 21.1836C36.335 19.7676 35.6611 17.8779 35.6611 15.5146V15.0166C35.6611 13.4443 35.959 12.043 36.5547 10.8125C37.1602 9.57227 38 8.60547 39.0742 7.91211C40.1582 7.20898 41.3301 6.85742 42.5898 6.85742C44.6504 6.85742 46.252 7.53613 47.3945 8.89355C48.5371 10.251 49.1084 12.1943 49.1084 14.7236V15.8516H38.3711C38.4102 17.4141 38.8643 18.6787 39.7334 19.6455C40.6123 20.6025 41.7256 21.0811 43.0732 21.0811C44.0303 21.0811 44.8408 20.8857 45.5049 20.4951C46.1689 20.1045 46.75 19.5869 47.248 18.9424L48.9033 20.2314C47.5752 22.2725 45.583 23.293 42.9268 23.293ZM42.5898 9.08398C41.4961 9.08398 40.5781 9.48438 39.8359 10.2852C39.0938 11.0762 38.6348 12.1895 38.459 13.625H46.3984V13.4199C46.3203 12.043 45.9492 10.9785 45.2852 10.2266C44.6211 9.46484 43.7227 9.08398 42.5898 9.08398ZM59.9189 9.58203C59.5088 9.51367 59.0645 9.47949 58.5859 9.47949C56.8086 9.47949 55.6025 10.2363 54.9678 11.75V23H52.2578V7.15039H54.8945L54.9385 8.98145C55.8271 7.56543 57.0869 6.85742 58.7178 6.85742C59.2451 6.85742 59.6455 6.92578 59.9189 7.0625V9.58203Z" fill="white"/>
</svg>
